<?xml version="1.0" encoding="UTF-8"?>
<svg width="16px" height="12px" viewBox="0 0 16 12" version="1.1" xmlns="http://www.w3.org/2000/svg" xmlns:xlink="http://www.w3.org/1999/xlink">
    <!-- Generator: Sketch 45.1 (43504) - http://www.bohemiancoding.com/sketch -->
    <title>下载文件</title>
    <desc>Created with Sketch.</desc>
    <defs></defs>
    <g id="Page-1" stroke="none" stroke-width="1" fill="none" fill-rule="evenodd">
        <g id="聊天-消息类型" transform="translate(-482.000000, -148.000000)" fill="#4CA4FE">
            <g id="文件-u" transform="translate(273.000000, 108.000000)">
                <g id="下载文件" transform="translate(209.000000, 38.000000)">
                    <path d="M14.6913696,9.53177136 C14.6913696,9.13190719 14.9530957,8.86533107 15.3456848,8.86533107 C15.6074109,8.86533107 16,9.00296661 16,9.53177136 L16,11.3342388 C16,12.8004075 14.8222327,14 13.3827392,14 L2.61726076,14 C1.17776734,14 0,12.8004075 0,11.3342388 L0,9.53177136 C0,9.13190719 0.130863038,8.86533107 0.523452152,8.86533107 C0.916041265,8.86533107 1.17776734,9.13190719 1.17776734,9.53177136 L1.17776734,10.5345105 C1.17776734,11.6008149 1.57035645,12.6671194 3.14071291,12.5338314 L12.7284241,12.5338314 C14.1679175,12.5338314 14.6913696,11.6008149 14.6913696,10.5345105 L14.6913696,9.53177136 Z M7.54197937,10.7662252 L4.00867734,7.30073571 C3.74695127,7.03415959 3.74695127,6.63429542 4.00867734,6.3677193 C4.13954038,6.10114318 4.66299253,6.10114318 4.92471861,6.3677193 L7.41111633,8.6336163 L7.41111633,2.66644029 C7.41111633,2.26657612 7.67284241,2 8.06543152,2 C8.45802063,2 8.71974671,2.26657612 8.71974671,2.66644029 L8.71974671,8.6336163 L11.2061444,6.3677193 C11.4678705,6.10114318 11.8604596,6.10114318 12.1221857,6.3677193 C12.3839118,6.63429542 12.3839118,7.03415959 12.1221857,7.30073571 L8.58888367,10.7662252 C8.06543152,11.2993775 7.54197937,10.7662252 7.54197937,10.7662252 Z" id="Combined-Shape"></path>
                </g>
            </g>
        </g>
    </g>
</svg>